<svg width="355" height="341" viewBox="0 0 355 341" fill="none" xmlns="http://www.w3.org/2000/svg">
<path d="M189.667 186.599C221.704 201.538 254.767 208.956 282.714 207.497C282.886 207.488 283.046 207.468 283.215 207.46L285.221 8.81906C285.289 1.79577 277.451 -2.42158 271.631 1.5056L104.537 114.233C118.074 140.025 149.336 167.788 189.667 186.599Z" fill="#F3F3F3" fill-opacity="0.6"/>
<path d="M275.736 226.571C246.589 226.571 213.535 218.578 181.681 203.723C137.738 183.231 104.692 154.005 88.8057 124.847L3.85012 182.163C-2.78721 186.64 -0.383999 196.948 7.54925 198.024L150.224 217.426C158.616 218.567 166.318 222.711 171.894 229.089L266.681 337.475C271.949 343.501 281.877 339.831 281.959 331.824L283.024 226.382C280.623 226.497 278.198 226.571 275.736 226.571Z" fill="#F3F3F3" fill-opacity="0.6"/>
<path d="M275.736 211.526C246.586 211.526 213.532 203.531 181.681 188.679C106.737 153.729 63.4087 93.3784 83.039 51.2809C102.672 9.18912 176.756 3.59132 251.697 38.5415C276.215 49.9738 298.437 64.8007 315.957 81.4194C319.746 85.0113 319.901 90.9894 316.312 94.7757C312.72 98.5592 306.742 98.717 302.958 95.1279C286.895 79.8925 266.408 66.2459 243.713 55.6617C180.551 26.205 114.812 27.8531 100.165 59.2649C85.5182 90.6739 126.506 142.093 189.67 171.55C221.707 186.49 254.753 193.919 282.717 192.445C308.548 191.096 326.482 182.394 333.218 167.947C340.244 152.883 333.446 135.682 326.507 123.9C323.859 119.404 325.358 113.614 329.851 110.966C334.348 108.318 340.14 109.814 342.788 114.313C355.851 136.487 358.536 158.374 350.344 175.937C340.514 197.018 316.847 209.582 283.708 211.318C281.088 211.459 278.426 211.526 275.736 211.526Z" fill="#F3F3F3" fill-opacity="0.6"/>
</svg>
